<svg xmlns="http://www.w3.org/2000/svg" width="200" height="200" class="icon" viewBox="0 0 1569 1024"><path fill="#C0C4CC" d="M156.647 699.64h21.091c5.683.12 10.239 4.778 10.239 10.443a10.29 10.29 0 0 1-10.239 10.443H156.63v21.108a10.443 10.443 0 0 1-10.443 10.238 10.273 10.273 0 0 1-10.426-10.238v-21.108h-21.108a10.443 10.443 0 0 1-10.239-10.443c0-5.75 4.505-10.443 10.239-10.443h21.108v-21.091a10.443 10.443 0 0 1 10.426-10.239c5.768 0 10.443 4.505 10.443 10.239v21.09zm1378.393-83.528V595.02a10.273 10.273 0 0 0-10.443-10.238 10.443 10.443 0 0 0-10.443 10.238v21.092h-21.091a10.273 10.273 0 0 0-10.239 10.443c0 5.597 4.608 10.443 10.239 10.443h21.09v21.09c0 5.734 4.693 10.24 10.444 10.24a10.443 10.443 0 0 0 10.443-10.24v-21.09h21.108c5.734 0 10.239-4.676 10.239-10.443a10.443 10.443 0 0 0-10.239-10.443h-21.108zm-758.698 344.59H250.55a20.801 20.801 0 0 1-20.818-20.887c0-11.535 9.47-20.886 20.818-20.886h94.705a83 83 0 0 1-11.091-41.67V271.401a83.477 83.477 0 0 1 83.613-83.442h62.574v-20.99a83.477 83.477 0 0 1 83.613-83.442h501.083a83.443 83.443 0 0 1 83.614 83.443v605.873c0 15.187-4.044 29.418-11.126 41.67h115.54c11.552 0 20.904 9.266 20.904 20.887 0 11.535-9.283 20.886-20.887 20.886h-250.618v20.988c0 15.187-4.044 29.402-11.126 41.67h11.194c11.484 0 20.818 9.266 20.818 20.887 0 11.518-9.453 20.886-20.818 20.886H892.667a41.636 41.636 0 0 1-6.416 50.85 41.67 41.67 0 0 1-59.058 0l-50.85-50.85zm76.344-41.773H919.1a41.636 41.636 0 0 0 41.62-41.875V270.413a40.442 40.442 0 0 0-40.323-40.68H416.241a40.493 40.493 0 0 0-40.305 40.68v606.675a41.84 41.84 0 0 0 41.568 41.875h317.048l-10.75-10.75a41.687 41.687 0 0 1-10.852-40.39l-19.71-19.744a146.238 146.238 0 0 1-190.945-220.483A146.187 146.187 0 0 1 722.76 818.54l19.743 19.743a41.636 41.636 0 0 1 40.374 10.836l69.808 69.826zm149.788-104.432h62.846a41.807 41.807 0 0 0 41.585-41.772V167.073a41.636 41.636 0 0 0-41.585-41.755H563.691a41.807 41.807 0 0 0-41.568 41.755v20.887H918.86a83.443 83.443 0 0 1 83.614 83.442v543.112zm-736.19-767.52h31.124c8.77 0 15.87 6.962 15.87 15.682a15.767 15.767 0 0 1-15.87 15.665h-31.125v31.107c0 8.771-6.962 15.87-15.665 15.87a15.767 15.767 0 0 1-15.664-15.87V78.324h-31.125a15.733 15.733 0 0 1-15.87-15.665c0-8.652 7.1-15.665 15.87-15.665h31.125V15.87C234.954 7.1 241.916 0 250.618 0c8.652 0 15.665 7.099 15.665 15.87v31.124zM20.885 939.85c0-11.535 9.454-20.886 20.818-20.886h125.438c11.484 0 20.818 9.265 20.818 20.886 0 11.518-9.454 20.886-20.818 20.886H41.722a20.801 20.801 0 0 1-20.836-20.886zm658.635-135.01A104.431 104.431 0 1 0 531.816 657.15 104.431 104.431 0 0 0 679.52 804.84zM459.464 313.294c0-11.535 9.351-20.869 20.87-20.886h229.749a20.886 20.886 0 1 1 0 41.773H480.35a20.818 20.818 0 0 1-20.887-20.887zm0 104.432a20.818 20.818 0 0 1 20.75-20.886h334.454c11.433 0 20.733 9.265 20.733 20.869a20.818 20.818 0 0 1-20.733 20.886H480.214a20.767 20.767 0 0 1-20.75-20.886zm0 104.431c0-11.552 9.317-20.903 20.852-20.903H626.59a20.818 20.818 0 0 1 20.852 20.886c0 11.536-9.317 20.887-20.852 20.887H480.316a20.801 20.801 0 0 1-20.852-20.887zM62.66 396.805a62.659 62.659 0 1 1 0-125.317 62.659 62.659 0 0 1 0 125.317zm0-31.329a31.33 31.33 0 1 0 0-62.659 31.33 31.33 0 0 0 0 62.659zm1294.865-93.988a62.659 62.659 0 1 1 0-125.318 62.659 62.659 0 0 1 0 125.318zm0-31.33a31.33 31.33 0 1 0 0-62.659 31.33 31.33 0 0 0 0 62.66z"/></svg>